<svg version="1.1" viewBox="0.0 0.0 748.7401574803149 751.3569553805775" fill="none" stroke="none" stroke-linecap="square" stroke-miterlimit="10" xmlns:xlink="http://www.w3.org/1999/xlink" xmlns="http://www.w3.org/2000/svg"><clipPath id="p.0"><path d="m0 0l748.7402 0l0 751.35693l-748.7402 0l0 -751.35693z" clip-rule="nonzero"/></clipPath><g clip-path="url(#p.0)"><path fill="#000000" fill-opacity="0.0" d="m0 0l748.7402 0l0 751.35693l-748.7402 0z" fill-rule="evenodd"/><path fill="#ffffff" d="m24.0 144.669l0 0c0 -64.43452 52.23449 -116.66901 116.66901 -116.66901l466.662 0l0 0c30.942566 0 60.617737 12.291878 82.49744 34.17156c21.8797 21.87968 34.17157 51.554897 34.17157 82.49745l0 466.662c0 64.43451 -52.234497 116.66901 -116.66901 116.66901l-466.662 0c-64.43452 0 -116.66901 -52.234497 -116.66901 -116.66901z" fill-rule="evenodd"/><path stroke="#000000" stroke-width="24.0" stroke-linejoin="round" stroke-linecap="butt" d="m24.0 144.669l0 0c0 -64.43452 52.23449 -116.66901 116.66901 -116.66901l466.662 0l0 0c30.942566 0 60.617737 12.291878 82.49744 34.17156c21.8797 21.87968 34.17157 51.554897 34.17157 82.49745l0 466.662c0 64.43451 -52.234497 116.66901 -116.66901 116.66901l-466.662 0c-64.43452 0 -116.66901 -52.234497 -116.66901 -116.66901z" fill-rule="evenodd"/><path fill="#000000" fill-opacity="0.0" d="m73.03937 211.99738l601.92126 0l0 499.02362l-601.92126 0z" fill-rule="evenodd"/><path fill="#cc0000" d="m341.2425 521.38416q13.328125 8.53125 13.328125 23.453125q0 11.734375 -8.53125 19.46875q-8.53125 7.734375 -19.203125 7.734375q-7.46875 0 -13.328125 -3.734375l-196.79688 -117.859375q-14.40625 -9.0625 -14.40625 -24.53125q0 -13.875 14.40625 -24.0l196.79688 -118.40625q7.46875 -3.203125 13.859375 -3.203125q11.203125 0 19.203125 7.203125q8.0 7.203125 8.0 18.40625q0 16.0 -13.328125 24.0l-160.53125 95.46875l160.53125 96.0zm-14.40625 62.859375q11.734375 0 19.734375 7.46875q8.0 7.46875 8.0 19.203125q0 11.734375 -8.0 19.734375q-8.0 8.0 -19.734375 8.0l-197.32812 0q-11.734375 0 -19.46875 -8.0q-7.734375 -8.0 -7.734375 -19.734375q0 -11.734375 7.734375 -19.203125q7.734375 -7.46875 19.46875 -7.46875l197.32812 0z" fill-rule="nonzero"/><path fill="#000000" fill-opacity="0.0" d="m73.03937 211.99738l601.92126 0l0 499.02362l-601.92126 0z" fill-rule="evenodd"/><path fill="#cc0000" d="m513.9659 236.44666q30.921875 0 56.515625 13.609375q25.609375 13.59375 40.28125 37.0625q14.671875 23.453125 14.671875 52.265625q0 28.796875 -18.140625 49.859375q-18.125 21.0625 -45.328125 33.328125q40.53125 13.875 60.265625 42.40625q19.734375 28.53125 19.734375 67.46875q0 34.125 -17.609375 61.859375q-17.59375 27.734375 -47.203125 43.46875q-29.59375 15.734375 -64.265625 15.734375q-39.453125 0 -70.65625 -16.796875q-31.203125 -16.796875 -48.8125 -45.859375q-17.59375 -29.078125 -17.59375 -65.34375q0 -11.734375 6.9375 -19.734375q6.9375 -8.0 17.59375 -8.0q10.671875 0 17.609375 8.0q6.9375 8.0 6.9375 19.734375q0 21.875 11.1875 40.28125q11.203125 18.390625 30.671875 29.328125q19.46875 10.921875 42.9375 10.921875q35.734375 0 57.0625 -19.734375q21.328125 -19.734375 21.328125 -54.390625q0 -21.875 -9.609375 -40.265625q-9.59375 -18.40625 -26.390625 -28.796875q-16.796875 -10.40625 -37.0625 -10.40625q-11.734375 0 -19.46875 -8.0q-7.734375 -8.0 -7.734375 -19.734375q0 -11.734375 7.734375 -19.46875q7.734375 -7.734375 19.46875 -7.734375q14.9375 0 29.0625 -7.734375q14.140625 -7.734375 22.9375 -21.0625q8.796875 -13.328125 8.796875 -29.328125q0 -23.46875 -17.0625 -39.46875q-17.0625 -16.0 -43.734375 -16.0q-20.265625 0 -37.0625 8.0q-16.796875 8.0 -26.671875 21.328125q-9.859375 13.328125 -9.859375 29.875q0 12.265625 -6.9375 20.53125q-6.9375 8.265625 -17.59375 8.265625q-10.671875 0 -17.609375 -7.734375q-6.9375 -7.734375 -6.9375 -19.46875q0 -30.40625 16.0 -55.203125q16.0 -24.796875 43.734375 -38.921875q27.734375 -14.140625 61.875 -14.140625z" fill-rule="nonzero"/></g></svg>