<svg version="1.1" viewBox="0.0 0.0 1792.0 752.0" fill="none" stroke="none" stroke-linecap="square" stroke-miterlimit="10" xmlns:xlink="http://www.w3.org/1999/xlink" xmlns="http://www.w3.org/2000/svg"><clipPath id="p.0"><path d="m0 0l1792.0 0l0 752.0l-1792.0 0l0 -752.0z" clip-rule="nonzero"/></clipPath><g clip-path="url(#p.0)"><path fill="#000000" fill-opacity="0.0" d="m0 0l1792.0 0l0 752.0l-1792.0 0z" fill-rule="evenodd"/><path fill="#ffffff" d="m24.0 144.669l0 0c0 -64.43452 52.23449 -116.66901 116.66901 -116.66901l466.662 0l0 0c30.942566 0 60.617737 12.291878 82.49744 34.17156c21.8797 21.87968 34.17157 51.554897 34.17157 82.49745l0 466.662c0 64.43451 -52.234497 116.66901 -116.66901 116.66901l-466.662 0c-64.43452 0 -116.66901 -52.234497 -116.66901 -116.66901z" fill-rule="evenodd"/><path stroke="#000000" stroke-width="24.0" stroke-linejoin="round" stroke-linecap="butt" d="m24.0 144.669l0 0c0 -64.43452 52.23449 -116.66901 116.66901 -116.66901l466.662 0l0 0c30.942566 0 60.617737 12.291878 82.49744 34.17156c21.8797 21.87968 34.17157 51.554897 34.17157 82.49745l0 466.662c0 64.43451 -52.234497 116.66901 -116.66901 116.66901l-466.662 0c-64.43452 0 -116.66901 -52.234497 -116.66901 -116.66901z" fill-rule="evenodd"/><path fill="#000000" fill-opacity="0.0" d="m73.03937 211.99738l601.92126 0l0 499.02362l-601.92126 0z" fill-rule="evenodd"/><path fill="#cc0000" d="m341.2425 521.38416q13.328125 8.53125 13.328125 23.453125q0 11.734375 -8.53125 19.46875q-8.53125 7.734375 -19.203125 7.734375q-7.46875 0 -13.328125 -3.734375l-196.79688 -117.859375q-14.40625 -9.0625 -14.40625 -24.53125q0 -13.875 14.40625 -24.0l196.79688 -118.40625q7.46875 -3.203125 13.859375 -3.203125q11.203125 0 19.203125 7.203125q8.0 7.203125 8.0 18.40625q0 16.0 -13.328125 24.0l-160.53125 95.46875l160.53125 96.0zm-14.40625 62.859375q11.734375 0 19.734375 7.46875q8.0 7.46875 8.0 19.203125q0 11.734375 -8.0 19.734375q-8.0 8.0 -19.734375 8.0l-197.32812 0q-11.734375 0 -19.46875 -8.0q-7.734375 -8.0 -7.734375 -19.734375q0 -11.734375 7.734375 -19.203125q7.734375 -7.46875 19.46875 -7.46875l197.32812 0z" fill-rule="nonzero"/><path fill="#000000" fill-opacity="0.0" d="m73.03937 211.99738l601.92126 0l0 499.02362l-601.92126 0z" fill-rule="evenodd"/><path fill="#cc0000" d="m513.9659 236.44666q30.921875 0 56.515625 13.609375q25.609375 13.59375 40.28125 37.0625q14.671875 23.453125 14.671875 52.265625q0 28.796875 -18.140625 49.859375q-18.125 21.0625 -45.328125 33.328125q40.53125 13.875 60.265625 42.40625q19.734375 28.53125 19.734375 67.46875q0 34.125 -17.609375 61.859375q-17.59375 27.734375 -47.203125 43.46875q-29.59375 15.734375 -64.265625 15.734375q-39.453125 0 -70.65625 -16.796875q-31.203125 -16.796875 -48.8125 -45.859375q-17.59375 -29.078125 -17.59375 -65.34375q0 -11.734375 6.9375 -19.734375q6.9375 -8.0 17.59375 -8.0q10.671875 0 17.609375 8.0q6.9375 8.0 6.9375 19.734375q0 21.875 11.1875 40.28125q11.203125 18.390625 30.671875 29.328125q19.46875 10.921875 42.9375 10.921875q35.734375 0 57.0625 -19.734375q21.328125 -19.734375 21.328125 -54.390625q0 -21.875 -9.609375 -40.265625q-9.59375 -18.40625 -26.390625 -28.796875q-16.796875 -10.40625 -37.0625 -10.40625q-11.734375 0 -19.46875 -8.0q-7.734375 -8.0 -7.734375 -19.734375q0 -11.734375 7.734375 -19.46875q7.734375 -7.734375 19.46875 -7.734375q14.9375 0 29.0625 -7.734375q14.140625 -7.734375 22.9375 -21.0625q8.796875 -13.328125 8.796875 -29.328125q0 -23.46875 -17.0625 -39.46875q-17.0625 -16.0 -43.734375 -16.0q-20.265625 0 -37.0625 8.0q-16.796875 8.0 -26.671875 21.328125q-9.859375 13.328125 -9.859375 29.875q0 12.265625 -6.9375 20.53125q-6.9375 8.265625 -17.59375 8.265625q-10.671875 0 -17.609375 -7.734375q-6.9375 -7.734375 -6.9375 -19.46875q0 -30.40625 16.0 -55.203125q16.0 -24.796875 43.734375 -38.921875q27.734375 -14.140625 61.875 -14.140625z" fill-rule="nonzero"/><path fill="#000000" fill-opacity="0.0" d="m790.0 372.4882l2384.0 0l0 187.49606l-2384.0 0z" fill-rule="evenodd"/><path fill="#cc0000" d="m940.4844 394.27988q31.828125 0 56.546875 -43.8125l42.59375 27.65625q-17.625 30.109375 -43.578125 45.65625q-25.9375 15.546875 -59.234375 15.546875q-35.25 0 -63.15625 -18.109375q-27.90625 -18.125 -44.0625 -54.96875q-16.15625 -36.84375 -16.15625 -90.453125q0 -58.015625 18.71875 -95.21875q18.734375 -37.203125 47.734375 -53.96875q29.015625 -16.765625 61.578125 -16.765625q35.5 0 61.4375 18.84375q25.953125 18.84375 40.15625 52.375l-40.640625 19.828125l-0.484375 0.25l0 -0.25q-9.3125 -25.6875 -24.734375 -35.71875q-15.421875 -10.046875 -34.265625 -10.046875q-36.234375 0 -53.734375 31.328125q-17.5 31.328125 -17.5 86.90625q0 34.015625 8.6875 61.5625q8.6875 27.53125 24.46875 43.453125q15.796875 15.90625 35.625 15.90625zm55.578125 -196.5625q0 -0.734375 0.734375 -0.734375q0.734375 0 2.203125 2.078125q1.46875 2.078125 1.953125 2.5625l-2.453125 1.234375l-2.4375 -5.140625zm7.09375 6.84375q0 0.5 -0.734375 -0.484375q-0.734375 -0.984375 -1.46875 -2.453125l0.984375 -0.484375l1.21875 3.421875zm173.30469 234.76562q-36.953125 0 -63.515625 -19.703125q-26.5625 -19.71875 -40.640625 -57.046875q-14.078125 -37.328125 -14.078125 -89.21875q0 -51.171875 14.078125 -87.875q14.078125 -36.71875 40.640625 -56.171875q26.5625 -19.46875 63.515625 -19.46875q36.96875 0 63.53125 19.46875q26.5625 19.453125 40.625 56.171875q14.078125 36.703125 14.078125 87.875q0 51.890625 -14.078125 89.21875q-14.0625 37.328125 -40.625 57.046875q-26.5625 19.703125 -63.53125 19.703125zm0 -45.046875q18.609375 0 32.1875 -15.296875q13.59375 -15.296875 20.8125 -43.328125q7.21875 -28.03125 7.21875 -65.234375q0 -34.515625 -7.21875 -60.578125q-7.21875 -26.078125 -20.8125 -40.390625q-13.578125 -14.328125 -32.1875 -14.328125q-18.359375 0 -32.0625 14.328125q-13.703125 14.3125 -20.9375 40.390625q-7.21875 26.0625 -7.21875 60.578125q0 37.203125 7.21875 65.234375q7.234375 28.03125 20.8125 43.328125q13.59375 15.296875 32.1875 15.296875zm145.89844 -276.35938l80.78125 0q39.90625 0 63.515625 10.65625q23.625 10.640625 40.28125 32.90625q32.0625 43.578125 32.0625 114.8125q0 73.921875 -34.390625 113.953125q-34.390625 40.015625 -107.59375 40.015625l-74.65625 0l0 -312.34375zm73.6875 268.28125q43.8125 0 65.234375 -27.65625q21.421875 -27.671875 21.421875 -80.78125q0 -113.09375 -81.515625 -113.09375l-24.234375 0l0 221.53125l19.09375 0zm183.10156 44.0625l0 -312.34375l203.42188 0l0 48.21875l-148.84375 0l0 77.109375l123.375 0l0 49.203125l-123.375 0l0 89.59375l147.85938 0l0 48.21875l-202.4375 0z" fill-rule="nonzero"/><path fill="#000000" fill-opacity="0.0" d="m794.0 364.25198l2384.0 0l0 147.49603l-2384.0 0z" fill-rule="evenodd"/><path fill="#cc0000" d="m886.125 541.0207q17.78125 8.46875 27.625 16.328125q9.84375 7.859375 13.9375 16.484375q4.109375 8.609375 4.109375 20.09375q0 13.9375 -6.4375 26.046875q-6.421875 12.09375 -20.296875 19.625q-13.875 7.515625 -35.203125 7.515625q-34.046875 0 -59.0625 -24.34375l13.671875 -23.78125l0.140625 -0.28125l0.265625 0.28125q20.375 21.1875 47.578125 21.1875q13.125 0 20.296875 -6.15625q7.1875 -6.15625 7.1875 -18.453125q0 -6.15625 -3.078125 -11.140625q-3.078125 -5.0 -10.53125 -10.046875q-7.453125 -5.0625 -20.578125 -10.9375q-24.328125 -10.53125 -35.265625 -23.65625q-10.9375 -13.125 -10.9375 -30.484344q0 -12.578125 7.03125 -23.171875q7.046875 -10.609375 19.421875 -16.828125q12.375 -6.21875 27.828125 -6.21875q17.359375 0 29.9375 5.75q12.578125 5.734375 24.0625 17.765625l-15.71875 21.875l-0.140625 0.28125q-0.140625 0 -0.140625 -0.0625q0 -0.078125 0 -0.078125q-6.421875 -10.25 -16.40625 -14.96875q-9.984375 -4.71875 -21.875 -4.71875q-7.65625 0 -13.203125 2.671875q-5.53125 2.65625 -8.328125 7.03125q-2.796875 4.375 -2.796875 9.578125q0 6.1405945 3.203125 10.8593445q3.21875 4.71875 11.0 9.71875q7.796875 4.984375 22.703125 12.234375zm22.015625 -32.68747q0 -0.265625 0.265625 -0.265625q0.28125 0 1.171875 0.6875q0.890625 0.671875 1.5625 1.09375l-0.40625 0.671875l-2.59375 -1.765625l0 -0.421875zm3.828125 0.421875q0.953125 1.5 0.953125 1.90625q0 0.140625 -0.140625 0.140625q-0.40625 0 -1.640625 -0.953125l0.828125 -1.09375zm-83.40625 90.09372q0 0.265625 -0.265625 0.265625q-0.40625 0 -1.4375 -0.546875q-1.03125 -0.546875 -1.703125 -0.8125l0.546875 -0.953125l2.734375 1.640625l0.125 0.40625zm-3.953125 -0.140625q-1.09375 -1.09375 -1.09375 -1.5q0 0 0 -0.0625q0 -0.078125 0.125 -0.078125l1.515625 0.6875l-0.546875 0.953125zm188.125 47.3125q-28.859375 0 -44.109375 -17.296875q-15.234375 -17.296875 -15.234375 -48.328125l0 -112.796844l33.5 0l0 3.140625q-1.5 1.640625 -1.921875 3.625q-0.40625 1.984375 -0.265625 6.625l0 99.671844q0 19.28125 6.421875 29.265625q6.421875 9.96875 21.875 9.96875q15.859375 0 22.34375 -10.109375q6.5 -10.125 6.5 -29.9375l0 -112.24997l30.765625 0l0 111.96872q0 33.09375 -15.859375 49.78125q-15.859375 16.671875 -44.015625 16.671875zm83.390625 -178.42184l55.234375 0q31.3125 0 46.140625 13.75q14.84375 13.734375 14.84375 38.34372q0 9.5625 -4.171875 19.140625q-4.171875 9.5625 -11.765625 16.875q-7.578125 7.3125 -17.421875 10.46875l40.875 75.875l-35.28125 0l-36.09375 -72.1875l-20.359375 0l0 72.1875l-32.0 0l0 -174.4531zm57.15625 75.609344q13.53125 0 20.21875 -6.28125q6.703125 -6.296875 6.703125 -17.234375q0 -12.3124695 -6.5 -18.328094q-6.484375 -6.015625 -20.421875 -6.015625l-25.15625 0l0 47.859344l25.15625 0zm140.54688 10.65625l59.328125 0l0 73.28125q-12.4375 10.390625 -25.703125 15.171875q-13.265625 4.796875 -28.84375 4.796875q-22.421875 0 -38.421875 -11.625q-16.0 -11.625 -24.34375 -32.46875q-8.328125 -20.859375 -8.328125 -48.328125q0 -33.90625 11.609375 -54.40622q11.625 -20.515625 27.828125 -28.859375q16.203125 -8.34375 31.65625 -8.34375q17.5 0 31.984375 9.234375q14.5 9.21875 23.109375 24.953125l-21.046875 20.359344l-0.140625 0.140625q-1.5 -1.78125 -4.234375 -6.5624695q-3.703125 -6.28125 -7.125 -10.65625q-3.40625 -4.375 -9.15625 -7.59375q-5.734375 -3.21875 -13.9375 -3.21875q-10.125 0 -18.734375 6.4375q-8.609375 6.421875 -14.015625 20.578094q-5.390625 14.140625 -5.390625 36.015625q0 20.640625 4.921875 36.03125q4.921875 15.375 13.734375 23.515625q8.8125 8.125 20.03125 8.125q15.453125 0 24.875 -7.234375l0 -32.8125l-29.65625 0l0 -26.53125zm35.0 -36.90625q0 -0.546875 0.40625 -0.546875q0.546875 0 2.875 1.765625l-1.09375 1.09375l-2.1875 -2.1875l0 -0.125zm5.046875 2.453125q0 0 -1.765625 -1.234375l0.40625 -0.40625l1.359375 1.640625zm44.84375 122.640625l0 -174.4531l113.625 0l0 26.9375l-83.125 0l0 43.06247l68.90625 0l0 27.484375l-68.90625 0l0 50.03125l82.578125 0l0 26.9375l-113.078125 0zm137.40625 -174.4531l55.234375 0q31.3125 0 46.140625 13.75q14.84375 13.734375 14.84375 38.34372q0 9.5625 -4.171875 19.140625q-4.171875 9.5625 -11.765625 16.875q-7.578125 7.3125 -17.421875 10.46875l40.875 75.875l-35.28125 0l-36.09375 -72.1875l-20.359375 0l0 72.1875l-32.0 0l0 -174.4531zm57.15625 75.609344q13.53125 0 20.21875 -6.28125q6.703125 -6.296875 6.703125 -17.234375q0 -12.3124695 -6.5 -18.328094q-6.484375 -6.015625 -20.421875 -6.015625l-25.15625 0l0 47.859344l25.15625 0zm126.046875 98.84375l0 -68.90625l-53.859375 -105.546844l35.0 0l35.953125 70.546844l31.859375 -70.546844l33.90625 0l-49.90625 105.81247l0 68.640625l-32.953125 0z" fill-rule="nonzero"/></g></svg>